# xmcd
#
# Track frame offsets:
#	150
#	15544
#	31012
#	46224
#	64576
#	96951
#	111680
#	127828
#	138100
#	155079
#	176456
#	199010
#	214728
#	228542
#	241219
#
# Disc length: 3438 seconds
#
# Revision: 1
# Processed by: cddbd v1.5.2PL0 Copyright (c) Steve Scherf et al.
# Submitted via: audiograbber 1.83.01
#
DISCID=c50d6c0f
DTITLE=Various Artist - Truck Stop  Hits
DYEAR=2007
DGENRE=Country
TTITLE0=Dusty Road
TTITLE1=Freeway Bound
TTITLE2=T for Texas
TTITLE3=Sundown
TTITLE4=Buffalo River Home
TTITLE5=Good and Country
TTITLE6=I shoulda left You in Tuscon
TTITLE7=There You go
TTITLE8=Too hot to sleep
TTITLE9=Rebel Highway
TTITLE10=I feel alright
TTITLE11=Those where the nights
TTITLE12=Memories burnin´
TTITLE13=Goodbye to Montana
TTITLE14=Drive Time
EXTD=
EXTT0=
EXTT1=
EXTT2=
EXTT3=
EXTT4=
EXTT5=
EXTT6=
EXTT7=
EXTT8=
EXTT9=
EXTT10=
EXTT11=
EXTT12=
EXTT13=
EXTT14=
PLAYORDER=
